<svg width="22" height="22" viewBox="0 0 22 22" fill="none" xmlns="http://www.w3.org/2000/svg">
<g clip-path="url(#clip0_501_12)">
<path d="M11 12L11 1.68457" stroke="black" stroke-width="2" stroke-linecap="round" stroke-linejoin="round"/>
<path d="M5.5 7.60596L11 12.606L16.5 7.60596" stroke="black" stroke-width="2" stroke-linecap="round" stroke-linejoin="round"/>
<path d="M22 20C22 21.1046 21.1046 22 20 22H2C0.895431 22 0 21.1046 0 20V15.0117H22V20ZM10.9727 16.1338C10.6034 16.1338 10.2736 16.1927 9.9834 16.3096C9.69344 16.4264 9.46529 16.5887 9.29883 16.7969C9.13402 17.0051 9.05212 17.2487 9.05371 17.5273C9.05206 17.8674 9.17476 18.1381 9.42188 18.3389C9.66917 18.5397 10.0066 18.6878 10.4336 18.7822L10.9854 18.9082C11.1697 18.9486 11.3253 18.9936 11.4521 19.043C11.5807 19.0924 11.6782 19.1522 11.7441 19.2227C11.8117 19.2931 11.8457 19.38 11.8457 19.4834C11.8457 19.5943 11.8086 19.6929 11.7344 19.7783C11.6602 19.8637 11.555 19.9306 11.4199 19.9785C11.2866 20.0264 11.1293 20.0498 10.9482 20.0498C10.7637 20.0498 10.5978 20.0245 10.4512 19.9736C10.3062 19.9212 10.1899 19.844 10.1025 19.7422C10.0168 19.6388 9.96761 19.5098 9.95605 19.3555H8.91992C8.92818 19.6866 9.01643 19.9647 9.18457 20.1895C9.35433 20.4127 9.59002 20.5814 9.8916 20.6953C10.1949 20.8092 10.5512 20.8662 10.96 20.8662C11.3721 20.8662 11.7248 20.8097 12.0166 20.6973C12.3097 20.5834 12.5336 20.4239 12.6885 20.2188C12.8451 20.0119 12.9241 19.7671 12.9258 19.4854C12.9241 19.2937 12.8854 19.1239 12.8096 18.9756C12.7354 18.8273 12.6312 18.6982 12.4961 18.5889C12.361 18.4796 12.201 18.3874 12.0166 18.3125C11.8321 18.2376 11.6289 18.1778 11.4082 18.1328L10.9531 18.0332C10.8428 18.0107 10.7388 17.9836 10.6416 17.9521C10.5443 17.9192 10.458 17.8814 10.3838 17.8379C10.3097 17.793 10.2508 17.7401 10.208 17.6787C10.1669 17.6174 10.1482 17.5451 10.1514 17.4629C10.1514 17.3641 10.1826 17.2751 10.2451 17.1973C10.3094 17.1193 10.4021 17.0581 10.5225 17.0146C10.6427 16.9697 10.7903 16.9473 10.9648 16.9473C11.222 16.9473 11.4261 16.9982 11.5762 17.0986C11.7259 17.199 11.8112 17.3394 11.8311 17.5205H12.8574C12.8524 17.2464 12.7708 17.0051 12.6143 16.7969C12.4577 16.5887 12.2387 16.4264 11.957 16.3096C11.6768 16.1927 11.3485 16.1338 10.9727 16.1338ZM6.11719 16.1338C5.6721 16.1338 5.27112 16.2263 4.91504 16.4121C4.55894 16.5965 4.27706 16.8656 4.06934 17.2178C3.86174 17.5699 3.75781 17.9971 3.75781 18.499C3.75784 18.9995 3.86005 19.4262 4.06445 19.7783C4.27051 20.1304 4.55091 20.3992 4.90527 20.585C5.26138 20.7708 5.66547 20.8643 6.11719 20.8643C6.44189 20.8642 6.7331 20.8199 6.99023 20.7314C7.24883 20.6416 7.47105 20.5199 7.65723 20.3672C7.84517 20.2128 7.99501 20.0376 8.10547 19.8428C8.21744 19.6466 8.28742 19.4426 8.31543 19.2314L7.23242 19.2275C7.20768 19.3503 7.16288 19.4598 7.09863 19.5557C7.03601 19.6515 6.95688 19.7334 6.86133 19.8008C6.76574 19.8667 6.65581 19.9167 6.53223 19.9512C6.41042 19.9856 6.27793 20.0029 6.13477 20.0029C5.87923 20.0029 5.65352 19.9459 5.45898 19.832C5.2645 19.7181 5.11269 19.5494 5.00391 19.3262C4.89679 19.1029 4.84377 18.8271 4.84375 18.499C4.84375 18.1798 4.89675 17.9079 5.00391 17.6846C5.11106 17.4599 5.26256 17.2897 5.45703 17.1729C5.65153 17.0545 5.87954 16.9951 6.1416 16.9951C6.28668 16.9951 6.42128 17.0133 6.54492 17.0508C6.67014 17.0882 6.7804 17.1425 6.87598 17.2129C6.97153 17.2833 7.05035 17.3684 7.11133 17.4688C7.17232 17.5677 7.21264 17.6812 7.23242 17.8086H8.31543C8.28082 17.542 8.20165 17.3054 8.07812 17.0986C7.95615 16.8918 7.79801 16.7166 7.60352 16.5742C7.40898 16.4303 7.18486 16.321 6.93262 16.2461C6.6822 16.1713 6.4104 16.1338 6.11719 16.1338ZM13.3721 16.1963L15.1201 20.8008H16.5L18.2461 16.1963H17.0596L15.832 19.6943H15.7852L14.5615 16.1963H13.3721Z" fill="black"/>
</g>
<defs>
<clipPath id="clip0_501_12">
<rect width="22" height="22" fill="white"/>
</clipPath>
</defs>
</svg>
