<svg width="32" height="32" viewBox="0 0 32 32" fill="none" xmlns="http://www.w3.org/2000/svg">
<path d="M23 5H9C7.346 5 6 6.346 6 8V27C6.00006 27.1872 6.05265 27.3706 6.15179 27.5294C6.25094 27.6881 6.39265 27.8159 6.56082 27.8981C6.72898 27.9803 6.91685 28.0137 7.10303 27.9944C7.28922 27.9751 7.46626 27.9039 7.614 27.789L16 21.267L24.386 27.789C24.5335 27.9043 24.7106 27.9757 24.8968 27.995C25.0831 28.0143 25.271 27.9806 25.439 27.898C25.6072 27.8158 25.7489 27.6881 25.8481 27.5293C25.9473 27.3706 25.9999 27.1872 26 27V8C26 6.346 24.654 5 23 5Z" fill="black"/>
</svg>
